<?xml version="1.0" encoding="UTF-8"?>
<!DOCTYPE svg PUBLIC "-//W3C//DTD SVG 1.1//EN" "http://www.w3.org/Graphics/SVG/1.1/DTD/svg11.dtd">
<!-- Creator: CorelDRAW -->
<svg xmlns="http://www.w3.org/2000/svg" xml:space="preserve" width="91.1518mm" height="15.0479mm" version="1.1" style="shape-rendering:geometricPrecision; text-rendering:geometricPrecision; image-rendering:optimizeQuality; fill-rule:evenodd; clip-rule:evenodd"
viewBox="0 0 8938.07 1475.55"
 xmlns:xlink="http://www.w3.org/1999/xlink"
 xmlns:xodm="http://www.corel.com/coreldraw/odm/2003">
 <defs>
  <style type="text/css">
   <![CDATA[
    .fil0 {fill:white}
    .fil1 {fill:white;fill-rule:nonzero}
   ]]>
  </style>
 </defs>
 <g id="Layer_x0020_1">
  <metadata id="CorelCorpID_0Corel-Layer"/>
  <g id="_2602912212112">
   <path class="fil0" d="M623.12 484.94c-0.14,-0.24 -0.37,-0.4 -0.65,-0.4 -0.26,0 -0.53,0.1 -0.71,0.3l0 0c-134.91,175.76 -347.06,289.1 -585.54,289.1l-27.39 0c-2.35,0 -4.57,-0.94 -6.26,-2.59 -1.65,-1.65 -2.59,-3.9 -2.59,-6.26l0 -54.77c0,-2.35 0.94,-4.58 2.59,-6.23 1.65,-1.65 3.9,-2.59 6.26,-2.59l27.39 0c229.22,0 431.52,-116.18 551.19,-292.77 4.98,-7.33 9.83,-14.81 14.5,-22.34 63.19,-101.74 99.66,-221.76 99.66,-350.2l0 -27.39c0,-2.35 0.94,-4.58 2.59,-6.23 1.65,-1.65 3.9,-2.59 6.26,-2.59l54.77 0c2.35,0 4.58,0.94 6.23,2.59 1.65,1.65 2.59,3.9 2.59,6.23l0 27.39c0,287.39 182.62,532.48 437.97,625.44 3.61,1.27 5.96,4.71 5.85,8.55 -0.1,3.79 -2.66,7.13 -6.29,8.17 -25.95,7.78 -51.34,16.86 -76.07,27.12 -2.28,0.94 -4.87,0.87 -7.1,-0.17 -183.33,-85.43 -325.77,-243.99 -389.83,-438.05l0 -0.03c-0.11,-0.34 -0.41,-0.54 -0.77,-0.54 -0.34,0 -0.65,0.24 -0.77,0.54l0 0c-17.26,52.24 -40.17,101.94 -68.06,148.3 -0.14,0.24 -0.17,0.54 -0.04,0.77 72.07,145.64 184.24,267.97 322.04,352.55 2.56,1.55 4.14,4.3 4.21,7.3 0.07,3 -1.37,5.82 -3.83,7.5 -16.01,10.97 -31.59,22.51 -46.73,34.59 -2.96,2.35 -7.1,2.59 -10.3,0.5 -129.29,-83.67 -236.61,-198.5 -311.23,-333.82l0.07 0zm78.46 954.38c0,-287.39 -182.62,-532.48 -438.01,-625.41 -3.6,-1.27 -5.95,-4.71 -5.85,-8.54 0.1,-3.8 2.66,-7.14 6.3,-8.22 25.94,-7.77 51.3,-16.82 76.06,-27.08 2.28,-0.94 4.84,-0.9 7.1,0.14 183.29,85.43 325.77,243.99 389.84,438.04l0 0c0.1,0.34 0.4,0.54 0.74,0.54 0.37,0 0.64,-0.24 0.77,-0.54l0 0c17.26,-52.24 40.17,-101.94 68.06,-148.3 0.14,-0.24 0.17,-0.54 0.04,-0.77 -72.07,-145.64 -184.24,-267.97 -322.01,-352.55 -2.56,-1.54 -4.14,-4.3 -4.21,-7.3 -0.07,-3 1.34,-5.82 3.83,-7.5 16.01,-10.97 31.59,-22.51 46.73,-34.56 2.96,-2.35 7.1,-2.59 10.3,-0.54 129.29,83.67 236.61,198.5 311.2,333.84 0.14,0.25 0.37,0.41 0.64,0.41 0.27,0.03 0.54,-0.11 0.71,-0.3l0 0c134.88,-175.76 347.07,-289.14 585.55,-289.14l27.38 0c2.36,0 4.58,0.94 6.23,2.59 1.65,1.66 2.59,3.9 2.59,6.23l0 54.77c0,2.35 -0.94,4.58 -2.59,6.26 -1.65,1.65 -3.9,2.59 -6.23,2.59l-27.38 0c-229.26,0 -431.59,116.21 -551.26,292.88 -7,10.35 -13.77,20.93 -20.19,31.69 -59.62,99.68 -93.9,216.26 -93.9,340.78l0 27.39c0,2.35 -0.94,4.57 -2.59,6.26 -1.65,1.65 -3.9,2.59 -6.23,2.59l-54.77 0c-2.35,0 -4.57,-0.94 -6.26,-2.59 -1.65,-1.65 -2.59,-3.9 -2.59,-6.26l0 -27.39z"/>
   <path class="fil1" d="M1834.47 1259.43l0 -837.55c0,-51.21 16.66,-93.47 49.99,-126.8 33.33,-33.32 75.59,-49.99 126.8,-49.99l507.17 0 0 210.12 -423.13 0c-7.73,0 -14.49,2.89 -20.29,8.69 -5.8,5.8 -8.7,12.56 -8.7,20.29l0 775.25 -231.85 0zm118.83 -363.71l0 -207.21 528.9 0 0 207.21 -528.9 0zm1060.71 363.71l0 -210.12 -26.08 -82.59 0 -152.16c0,-35.74 -11.11,-60.85 -33.33,-75.35 -22.22,-14.49 -49.27,-21.74 -81.15,-21.74 -32.84,0 -67.87,6.52 -105.06,19.56 -37.19,13.04 -69.8,30.67 -97.81,52.89l-95.63 -143.46c31.88,-33.81 76.07,-61.58 132.59,-83.32 56.51,-21.74 116.65,-32.6 180.41,-32.6 61.82,0 116.17,10.63 163.02,31.88 46.85,21.26 83.8,51.93 110.85,92.02 27.04,40.1 40.58,89.11 40.58,147.08l0 233.31c0,37.67 0.24,75.1 0.72,112.29 0.49,37.19 1.7,74.63 3.63,112.3l-192.72 0zm-195.62 14.49c-79.22,0 -142.73,-19.81 -190.55,-59.41 -47.82,-39.61 -71.73,-90.33 -71.73,-152.16 0,-43.47 11.35,-81.62 34.06,-114.47 22.7,-32.85 56.03,-58.69 99.98,-77.52 43.96,-18.84 97.33,-28.26 160.13,-28.26 87.91,0 152.87,18.84 194.9,56.52 42.02,37.67 63.03,87.91 63.03,150.69l-63.76 0c0,71.49 -18.36,126.8 -55.07,165.92 -36.7,39.12 -93.7,58.69 -170.98,58.69zm62.31 -156.5c31.88,0 57.96,-6.29 78.25,-18.84 20.29,-12.56 30.43,-28.99 30.43,-49.27 0,-19.32 -10.14,-35.26 -30.43,-47.81 -20.29,-12.56 -46.37,-18.84 -78.25,-18.84 -30.92,0 -56.51,6.28 -76.8,18.84 -20.29,12.55 -30.43,28.5 -30.43,47.81 0,20.29 10.14,36.71 30.43,49.27 20.29,12.55 45.88,18.84 76.8,18.84zm889.72 156.5c-53.14,0 -101.44,-11.84 -144.91,-35.51 -43.47,-23.66 -79.22,-56.76 -107.24,-99.25l42.03 -46.37 0 166.64 -195.62 0 0 -1057.81 217.36 0 0 489.77 -44.92 -52.17c28.01,-33.81 61.82,-60.37 101.43,-79.69 39.61,-19.33 83.07,-28.99 130.42,-28.99 63.76,0 121.24,15.22 172.43,45.65 51.21,30.43 92.02,73.18 122.44,128.24 30.44,55.07 45.65,118.83 45.65,191.28l0 14.49c0,73.42 -14.97,137.42 -44.92,192 -29.95,54.58 -70.28,96.85 -120.99,126.8 -50.72,29.95 -108.44,44.92 -173.16,44.92zm-36.23 -189.83c28.01,0 54.1,-6.77 78.25,-20.29 24.15,-13.52 43.47,-33.33 57.96,-59.41 14.49,-26.08 21.74,-57.48 21.74,-94.18l0 -14.49c0,-37.67 -7.25,-69.55 -21.74,-95.63 -14.49,-26.08 -33.81,-45.89 -57.96,-59.41 -24.15,-13.52 -50.23,-20.29 -78.25,-20.29 -30.91,0 -59.17,7 -84.77,21.01 -25.59,14 -45.65,34.54 -60.14,61.58 -14.48,27.05 -21.73,60.38 -21.73,99.99 0,38.64 7.25,71.48 21.73,98.54 14.49,27.04 34.55,47.58 60.14,61.58 25.6,14.01 53.86,21.01 84.77,21.01zm737.57 175.34c-71.48,0 -128.24,-18.59 -170.27,-55.78 -42.02,-37.19 -63.03,-89.6 -63.03,-157.22l0 -759.3 97.09 97.09 -202.87 0 0 -182.58 323.15 0 0 849.14c0,7.73 2.89,14.49 8.69,20.29 5.8,5.8 12.56,8.7 20.29,8.7l82.59 0 0 179.68 -95.63 0zm524.56 14.49c-72.45,0 -135.97,-15.22 -190.55,-45.65 -54.58,-30.44 -97.32,-73.18 -128.24,-128.24 -30.91,-55.07 -46.37,-119.31 -46.37,-192.73l0 -14.49c0,-67.62 14.49,-128.72 43.48,-183.3 28.98,-54.59 69.55,-98.06 121.72,-130.42 52.17,-32.37 113.02,-48.55 182.58,-48.55 75.35,0 139.35,18.11 192,54.34 52.65,36.22 90.81,87.18 114.48,152.87 23.66,65.7 29.7,142.98 18.11,231.86l-515.87 0 0 -140.56 401.39 0 -97.09 69.56c7.74,-43.48 7.49,-79.95 -0.72,-109.41 -8.22,-29.46 -21.98,-51.92 -41.3,-67.37 -19.32,-15.46 -42.51,-23.19 -69.55,-23.19 -31.89,0 -57.73,8.7 -77.53,26.08 -19.8,17.4 -34.29,40.58 -43.47,69.56 -9.18,28.98 -13.77,61.82 -13.77,98.53l0 43.48c0,30.91 6.04,58.2 18.12,81.87 12.07,23.67 30.18,42.03 54.33,55.07 24.15,13.04 54.1,19.56 89.84,19.56 34.78,0 62.8,-5.56 84.04,-16.67 21.26,-11.11 41.06,-26.32 59.41,-45.65l123.17 126.07c-29.95,39.61 -68.58,69.07 -115.92,88.39 -47.33,19.33 -101.43,28.99 -162.29,28.99zm520.21 -14.49l0 -917.25 233.3 0 0 917.25 -233.3 0zm-272.42 -804.22l0 -210.12 782.48 0 0 210.12 -782.48 0zm768 804.22l0 -714.38 210.12 0 0 230.39 -26.08 0c0,-60.85 9.41,-108.68 28.25,-143.45 18.84,-34.78 44.44,-59.18 76.81,-73.18 32.36,-14.01 68.35,-21.01 107.95,-21.01l55.06 0 0 214.46 -73.9 0c-52.17,0 -92.02,10.86 -119.55,32.6 -27.53,21.74 -41.29,51.92 -41.29,90.57l0 384 -217.36 0zm952.04 0l0 -210.12 -26.08 -82.59 0 -152.16c0,-35.74 -11.11,-60.85 -33.33,-75.35 -22.22,-14.49 -49.27,-21.74 -81.15,-21.74 -32.84,0 -67.87,6.52 -105.06,19.56 -37.19,13.04 -69.8,30.67 -97.81,52.89l-95.63 -143.46c31.88,-33.81 76.07,-61.58 132.59,-83.32 56.51,-21.74 116.65,-32.6 180.41,-32.6 61.82,0 116.17,10.63 163.02,31.88 46.85,21.26 83.8,51.93 110.85,92.02 27.04,40.1 40.58,89.11 40.58,147.08l0 233.31c0,37.67 0.24,75.1 0.72,112.29 0.49,37.19 1.7,74.63 3.63,112.3l-192.72 0zm-195.62 14.49c-79.22,0 -142.73,-19.81 -190.55,-59.41 -47.82,-39.61 -71.73,-90.33 -71.73,-152.16 0,-43.47 11.35,-81.62 34.06,-114.47 22.7,-32.85 56.03,-58.69 99.98,-77.52 43.96,-18.84 97.33,-28.26 160.13,-28.26 87.91,0 152.87,18.84 194.9,56.52 42.02,37.67 63.03,87.91 63.03,150.69l-63.76 0c0,71.49 -18.36,126.8 -55.07,165.92 -36.7,39.12 -93.7,58.69 -170.98,58.69zm62.31 -156.5c31.88,0 57.96,-6.29 78.25,-18.84 20.29,-12.56 30.43,-28.99 30.43,-49.27 0,-19.32 -10.14,-35.26 -30.43,-47.81 -20.29,-12.56 -46.37,-18.84 -78.25,-18.84 -30.92,0 -56.51,6.28 -76.8,18.84 -20.29,12.55 -30.43,28.5 -30.43,47.81 0,20.29 10.14,36.71 30.43,49.27 20.29,12.55 45.88,18.84 76.8,18.84zm821.61 156.5c-72.45,0 -137.17,-15.46 -194.17,-46.37 -57,-30.92 -101.92,-73.91 -134.76,-128.96 -32.85,-55.07 -49.27,-118.34 -49.27,-189.83l0 -14.49c0,-72.45 16.67,-135.97 50,-190.54 33.32,-54.59 78.48,-97.1 135.49,-127.52 56.99,-30.43 121.24,-45.65 192.72,-45.65 54.1,0 105.06,11.35 152.88,34.06 47.81,22.7 85.73,53.85 113.75,93.47l-131.87 131.86c-16.41,-21.25 -36.47,-36.7 -60.13,-46.37 -23.67,-9.66 -48.07,-14.48 -73.18,-14.48 -29.95,0 -57.48,6.52 -82.59,19.56 -25.12,13.04 -44.92,31.88 -59.41,56.51 -14.49,24.63 -21.74,54.34 -21.74,89.11l0 14.49c0,34.78 7.49,64.48 22.46,89.11 14.97,24.63 35.26,43.71 60.85,57.24 25.6,13.53 53.37,20.29 83.32,20.29 23.19,0 46.86,-4.34 71.01,-13.04 24.14,-8.69 46.36,-23.66 66.65,-44.92l128.96 128.96c-28.01,38.64 -66.65,69.56 -115.92,92.74 -49.26,23.19 -100.95,34.78 -155.05,34.78zm498.48 -88.4l-14.49 -275.31 321.69 -365.16 266.63 0 -573.82 640.48zm-120.28 73.91l0 -1057.81 217.36 0 0 1057.81 -217.36 0zm430.37 0l-207.21 -379.66 168.09 -144.9 305.75 524.56 -266.63 0z"/>
   <path class="fil1" d="M8840.01 393.77c-19.08,0 -36.02,-4.05 -50.79,-12.16 -14.78,-8.11 -26.35,-19.42 -34.71,-33.93 -8.36,-14.51 -12.55,-31.04 -12.55,-49.62 0,-18.83 4.19,-35.43 12.55,-49.81 8.36,-14.38 19.93,-25.62 34.71,-33.73 14.78,-8.11 31.71,-12.16 50.79,-12.16 19.35,0 36.35,4.05 50.99,12.16 14.65,8.11 26.15,19.35 34.52,33.73 8.37,14.38 12.55,30.99 12.55,49.81 0,18.57 -4.18,35.1 -12.55,49.62 -8.36,14.51 -19.87,25.82 -34.52,33.93 -14.64,8.11 -31.64,12.16 -50.99,12.16zm0 -21.96c14.64,0 27.52,-3.14 38.63,-9.41 11.12,-6.28 19.81,-14.97 26.08,-26.08 6.28,-11.11 9.41,-23.86 9.41,-38.24 0,-14.64 -3.14,-27.52 -9.41,-38.63 -6.28,-11.11 -14.96,-19.81 -26.08,-26.08 -11.11,-6.28 -23.99,-9.41 -38.63,-9.41 -14.64,0 -27.58,3.14 -38.83,9.41 -11.25,6.28 -20.07,14.97 -26.48,26.08 -6.4,11.11 -9.61,23.99 -9.61,38.63 0,14.38 3.21,27.13 9.61,38.24 6.4,11.11 15.23,19.81 26.48,26.08 11.25,6.28 24.19,9.41 38.83,9.41zm13.34 -31.77l-16.87 -37.26 23.93 0 21.18 37.26 -28.24 0zm-45.11 0l0 -87.86 36.08 0c10.2,0 18.56,2.87 25.1,8.63 6.54,5.76 9.81,13.34 9.81,22.75 0,9.68 -3.27,17.33 -9.81,22.95 -6.54,5.62 -14.9,8.43 -25.1,8.43l-24.71 0 0 -20.4 23.93 0c3.14,0 5.81,-0.91 8.04,-2.75 2.23,-1.83 3.33,-4.44 3.33,-7.84 0,-3.4 -0.98,-6.01 -2.94,-7.84 -1.96,-1.82 -4.77,-2.75 -8.43,-2.75l-20.4 0 9.41 -9.02 0 75.7 -24.32 0z"/>
  </g>
 </g>
</svg>
